:version 1.10
:name ASF
:units
  mass 1
  length 1
  angle deg
:documentation
  ASF file generated by Kaydara
:root
  axis xyz
  order  tx ty tz rx ry rz
  position 0 0 0
  orientation 0 0 0
:bonedata
  begin
    id 1
    name LeftUpLegDummy
    direction 1 -2.30186e-007 -8.31532e-007
    length 2.93387
    axis 0 0 0 xyz
  end
  begin
    id 2
    name LeftUpLeg
    direction -1.82929e-007 -1 -1.48925e-009
    length 17.3336
    axis -3.48766 0.00143442 -0.000521554 xyz
    dof rx ry rz
  end
  begin
    id 3
    name LeftLeg
    direction -1.82929e-007 -1 -5.23717e-011
    length 14.9995
    axis 3.68178 -0.00654042 -0.000282425 xyz
    dof rx ry rz
  end
  begin
    id 4
    name LeftFoot
    direction 8.31532e-007 -4.54534e-011 1
    length 6.74421
    axis 1.87234e-006 4.66016e-005 -5.96866e-006 xyz
    dof rx ry rz
  end
  begin
    id 5
    name LeftToes
    direction 0.00818058 -0.00485161 0.999955
    length 3.85048
    axis 1.06247e-005 4.65869e-005 -5.96999e-006 xyz
    dof rx ry rz
  end
  begin
    id 6
    name SpineDummy
    direction -5.8607e-008 0.943407 -0.331637
    length 5.93572
    axis 0 0 0 xyz
  end
  begin
    id 7
    name Spine
    direction -1.04988e-007 0.999988 0.00495137
    length 10.1015
    axis -0.001389 0.000121417 6.61666e-006 xyz
    dof rx ry rz
  end
  begin
    id 8
    name Spine1
    direction 0 0 0
    length 0
    axis -0.001389 0.00012144 6.56766e-006 xyz
    dof rx ry rz
  end
  begin
    id 9
    name RightShoulderDummy
    direction -0.98348 0.17941 -0.0240696
    length 3.59882
    axis -0.001389 0.00012144 6.56766e-006 xyz
  end
  begin
    id 10
    name RightShoulder
    direction -0.978693 0.204882 0.0135597
    length 2.70001
    axis 0.215806 0.000203631 -0.00679732 xyz
    dof rx ry rz
  end
  begin
    id 11
    name RightArm
    direction -1 3.85509e-006 8.31394e-007
    length 10.2459
    axis -23.2009 -0.134239 -0.964098 xyz
    dof rx ry rz
  end
  begin
    id 12
    name RightForeArm
    direction -1 3.85569e-006 8.3129e-007
    length 8.16799
    axis -9.92322 0.0658061 0.17887 xyz
    dof rx ry rz
  end
  begin
    id 13
    name RightHand
    direction -0.992843 -0.0414604 0.112003
    length 5.28593
    axis -0.00960638 0.00330669 -0.185225 xyz
    dof rx ry rz
  end
  begin
    id 14
    name LeftShoulder1Dummy
    direction 0.983523 0.179172 -0.0240748
    length 3.59866
    axis -0.001389 0.00012144 6.56766e-006 xyz
  end
  begin
    id 15
    name LeftShoulder1
    direction 0.978627 0.205195 0.0135605
    length 2.70019
    axis -0.001389 0.00012144 6.57583e-006 xyz
    dof rx ry rz
  end
  begin
    id 16
    name LeftArm
    direction 1 3.51895e-006 -8.60188e-007
    length 10.2459
    axis -23.1894 0.134785 0.967513 xyz
    dof rx ry rz
  end
  begin
    id 17
    name LeftForeArm
    direction 1 3.51921e-006 -7.32029e-007
    length 8.16799
    axis -9.91835 -0.0656957 -0.177789 xyz
    dof rx ry rz
  end
  begin
    id 18
    name LeftHand
    direction 0.992938 -0.0411636 0.11126
    length 5.32135
    axis -0.00960237 -0.00340661 0.185177 xyz
    dof rx ry rz
  end
  begin
    id 19
    name HEadDummy
    direction 1.01974e-006 0.999861 -0.016675
    length 2.99946
    axis -0.001389 0.00012144 6.56766e-006 xyz
  end
  begin
    id 20
    name HEad
    direction -0.0222689 0.980941 0.193023
    length 5.12695
    axis -0.001389 0.00012144 6.56766e-006 xyz
    dof rx ry rz
  end
  begin
    id 21
    name RightUpLegDummy
    direction -1 2.30186e-007 8.31532e-007
    length 2.93387
    axis 0 0 0 xyz
  end
  begin
    id 22
    name RightUpLeg
    direction -1.82966e-007 -1 1.56832e-007
    length 17.3336
    axis -3.4909 -0.000906625 0.00028951 xyz
    dof rx ry rz
  end
  begin
    id 23
    name RightLeg
    direction -1.82786e-007 -1 -1.80317e-007
    length 14.9995
    axis 3.68513 0.0193739 -0.131021 xyz
    dof rx ry rz
  end
  begin
    id 24
    name RightFoot
    direction 8.31721e-007 -4.63324e-011 1
    length 6.74421
    axis 4.81691e-005 -0.120479 -0.188785 xyz
    dof rx ry rz
  end
  begin
    id 25
    name RightToes
    direction 0.00124746 -0.014064 0.9999
    length 3.85082
    axis 0.000481921 0.542163 -0.142575 xyz
    dof rx ry rz
  end
:hierarchy
  begin
    root LeftUpLegDummy SpineDummy RightUpLegDummy
    LeftUpLegDummy LeftUpLeg
    LeftUpLeg LeftLeg
    LeftLeg LeftFoot
    LeftFoot LeftToes
    SpineDummy Spine
    Spine Spine1
    Spine1 RightShoulderDummy LeftShoulder1Dummy HEadDummy
    RightShoulderDummy RightShoulder
    RightShoulder RightArm
    RightArm RightForeArm
    RightForeArm RightHand
    LeftShoulder1Dummy LeftShoulder1
    LeftShoulder1 LeftArm
    LeftArm LeftForeArm
    LeftForeArm LeftHand
    HEadDummy HEad
    RightUpLegDummy RightUpLeg
    RightUpLeg RightLeg
    RightLeg RightFoot
    RightFoot RightToes
  end

:SAMPLES-PER-SECOND 30
:FULLY-SPECIFIED
:DEGREES
143
root  -0.883146 34.2948 19.9364 5.38702 30.1167 -1.40951
LeftUpLeg  -7.75899 9.84851 7.46139
LeftLeg  12.9213 9.20238 1.48873
LeftFoot  2.49771 0.0069045 0.412148
LeftToes  -22.9799 1.92152e-006 4.03786e-008
Spine  2.09243 1.67584 0.943895
Spine1  4.03397 3.56133 1.61033
RightShoulder  0.060569 3.21025 8.75147
RightArm  -25.264 -17.8 72.1119
RightForeArm  39.386 72.8913 35.2522
RightHand  2.2953 -12.5553 -20.2616
LeftShoulder1  0.00750315 1.16606 -9.38087
LeftArm  -21.2556 20.7286 -69.9314
LeftForeArm  25.5224 -18.4184 -3.3603
LeftHand  0.0588481 3.16012 1.75935
HEad  -7.56451 -18.4958 -0.843001
RightUpLeg  -10.3765 -12.3885 0.114296
RightLeg  7.74163 1.78449 0.128007
RightFoot  3.55194 0.0121568 0.136797
RightToes  -26.5161 -0.119685 -0.225835
144
root  -0.747606 34.2746 19.7899 5.22512 30.6007 -1.60354
LeftUpLeg  -7.28137 10.0497 7.2868
LeftLeg  11.5615 8.65929 1.1924
LeftFoot  2.4243 0.00989336 0.377571
LeftToes  -22.0702 1.92152e-006 4.03786e-008
Spine  1.62456 0.915934 1.20308
Spine1  3.10738 2.0431 2.13019
RightShoulder  0.0495729 1.77942 7.36646
RightArm  -24.4336 -12.7176 74.1158
RightForeArm  40.7566 68.7389 27.1369
RightHand  2.77128 -11.1482 -27.4549
LeftShoulder1  0.00793627 1.01227 -9.24411
LeftArm  -22.4207 22.6256 -70.4776
LeftForeArm  25.7922 -17.2141 -3.12606
LeftHand  0.0710097 3.24777 2.12987
HEad  -4.76051 -17.5537 -1.88976
RightUpLeg  -10.5521 -12.4097 -0.0577497
RightLeg  8.12672 1.3089 0.103115
RightFoot  3.60174 0.0141982 0.114319
RightToes  -27.0219 -0.121174 -0.227581
145
root  -0.60245 34.2615 19.6079 5.09329 29.7554 -1.46395
LeftUpLeg  -6.39666 10.4826 6.82573
LeftLeg  10.2421 8.94491 1.02323
LeftFoot  2.56266 0.00742921 0.413781
LeftToes  -21.7542 1.92152e-006 4.03786e-008
Spine  1.44763 0.811383 1.1581
Spine1  2.7389 1.87149 2.02237
RightShoulder  0.053008 2.62831 6.36068
RightArm  -20.7659 -7.87466 71.8317
RightForeArm  34.8171 66.3882 23.9385
RightHand  3.09827 -12.0251 -28.4163
LeftShoulder1  0.00867831 1.08375 -9.29945
LeftArm  -21.6357 23.2701 -70.3143
LeftForeArm  25.7018 -16.7079 -3.02865
LeftHand  0.0794416 3.2256 2.44568
HEad  -2.61452 -17.4721 -1.7114
RightUpLeg  -10.8644 -11.6081 -0.561904
RightLeg  8.71951 1.33187 0.118775
RightFoot  3.63036 0.0141191 0.125176
RightToes  -27.0065 -0.12386 -0.230631
146
root  -0.459959 34.257 19.4064 5.09748 28.4607 -1.16455
LeftUpLeg  -5.56508 10.2215 6.16068
LeftLeg  9.05546 10.3094 0.963404
LeftFoot  2.70731 0.000749281 0.503573
LeftToes  -20.8605 1.92152e-006 4.03786e-008
Spine  1.49302 1.47314 0.914839
Spine1  2.80259 3.2293 1.53014
RightShoulder  0.0620702 4.31018 5.50899
RightArm  -20.5411 -5.40102 68.9138
RightForeArm  32.7612 66.5915 24.187
RightHand  3.27583 -13.1852 -27.4109
LeftShoulder1  0.0112257 1.04253 -9.49465
LeftArm  -18.7285 21.9882 -69.3543
LeftForeArm  25.5345 -16.0167 -2.89649
LeftHand  0.0649037 3.54563 1.72339
HEad  -2.56107 -19.0787 -0.239284
RightUpLeg  -11.176 -10.4628 -1.19712
RightLeg  8.9604 1.42795 0.133289
RightFoot  4.00482 0.0132889 0.147647
RightToes  -27.8101 -0.129136 -0.236461
147
root  -0.340724 34.267 19.1812 5.29443 27.7473 -0.894559
LeftUpLeg  -5.52797 9.85051 5.48079
LeftLeg  8.65109 11.2957 0.974724
LeftFoot  2.6921 -0.00357154 0.546789
LeftToes  -20.2096 1.92152e-006 4.03786e-008
Spine  1.48354 2.19521 0.439264
Spine1  2.74463 4.6743 0.609092
RightShoulder  0.0647173 4.46862 5.20812
RightArm  -20.767 -4.21077 67.0822
RightForeArm  29.6033 64.2435 21.5558
RightHand  3.35275 -13.8595 -26.6959
LeftShoulder1  0.0145318 0.542587 -8.80944
LeftArm  -17.9415 20.4128 -68.6981
LeftForeArm  26.6663 -15.5739 -2.81193
LeftHand  0.0369716 3.6625 0.7849
HEad  -4.02744 -21.4191 2.18575
RightUpLeg  -11.4332 -10.1397 -1.7319
RightLeg  8.60696 1.79323 0.155882
RightFoot  4.66869 0.0110348 0.191722
RightToes  -28.4709 -0.133534 -0.241199
148
root  -0.250394 34.2791 18.963 5.68913 28.2154 -0.656928
LeftUpLeg  -6.36118 9.94158 4.88573
LeftLeg  9.03821 10.7529 1.00116
LeftFoot  2.59944 -0.00262611 0.50027
LeftToes  -19.9959 1.92152e-006 4.03786e-008
Spine  1.46007 2.23123 0.052167
Spine1  2.67626 4.7075 -0.108525
RightShoulder  0.0651724 4.2072 5.41108
RightArm  -18.9182 -4.13146 65.9677
RightForeArm  21.7944 58.3819 16.7096
RightHand  3.2506 -14.3778 -24.9754
LeftShoulder1  0.0177328 0.505218 -8.67577
LeftArm  -19.6359 19.1883 -67.9181
LeftForeArm  27.6594 -15.7524 -2.84543
LeftHand  0.0482824 3.40651 1.25108
HEad  -6.0308 -23.498 4.40893
RightUpLeg  -11.7119 -11.1734 -2.11685
RightLeg  8.1092 2.33923 0.182461
RightFoot  5.28693 0.00738977 0.256428
RightToes  -28.7893 -0.136558 -0.244395
149
root  -0.162017 34.2792 18.7638 6.05146 28.8897 -0.516111
LeftUpLeg  -7.14243 10.6561 4.39901
LeftLeg  9.2545 9.44418 0.916171
LeftFoot  2.47918 0.000328371 0.416661
LeftToes  -19.6001 1.92152e-006 4.03786e-008
Spine  1.54973 2.11316 -0.159608
Spine1  2.84552 4.42764 -0.468572
RightShoulder  0.063859 4.56094 6.14791
RightArm  -17.095 -5.89328 65.5157
RightForeArm  15.2143 53.9153 14.0388
RightHand  3.28183 -15.2289 -23.8102
LeftShoulder1  0.0204357 0.568767 -9.23581
LeftArm  -21.1771 18.1161 -66.9188
LeftForeArm  26.7267 -16.5051 -2.98941
LeftHand  0.0818748 3.01231 2.73685
HEad  -7.76821 -25.5363 5.76863
RightUpLeg  -12.0679 -12.0458 -2.4068
RightLeg  7.87463 2.49952 0.184574
RightFoot  5.80364 0.00552349 0.292103
RightToes  -29.3038 -0.139156 -0.247098
150
root  -0.0749263 34.2595 18.5788 6.26268 29.2102 -0.384324
LeftUpLeg  -7.71469 11.8157 3.94042
LeftLeg  9.53767 8.03459 0.820197
LeftFoot  2.18241 0.00448241 0.310568
LeftToes  -19.3057 1.92152e-006 4.03786e-008
Spine  1.66167 2.10174 -0.271713
Spine1  3.05795 4.36759 -0.630278
RightShoulder  0.0611286 5.57664 6.65642
RightArm  -19.9455 -9.64418 67.1282
RightForeArm  14.7814 53.6602 13.9045
RightHand  3.59521 -15.1864 -26.1149
LeftShoulder1  0.0220399 0.648026 -9.8025
LeftArm  -21.6661 17.1175 -66.0963
LeftForeArm  24.792 -17.2846 -3.13995
LeftHand  0.0997975 2.66211 3.91288
HEad  -8.84317 -27.4338 5.86404
RightUpLeg  -12.4377 -12.1694 -2.75306
RightLeg  7.97612 2.28007 0.172555
RightFoot  6.06706 0.00651044 0.28161
RightToes  -29.6987 -0.141852 -0.249867
151
root  0.0133363 34.2429 18.4067 6.23709 29.248 -0.255895
LeftUpLeg  -7.87914 12.2567 3.5405
LeftLeg  9.65578 7.53616 0.785198
LeftFoot  1.93282 0.00512042 0.257299
LeftToes  -18.9155 1.92152e-006 4.03786e-008
Spine  1.76374 2.07261 -0.361099
Spine1  3.25543 4.29016 -0.777844
RightShoulder  0.0579996 6.0806 6.87318
RightArm  -27.789 -13.5238 70.8359
RightForeArm  20.3459 58.7291 16.9451
RightHand  3.52537 -13.5522 -28.6581
LeftShoulder1  0.0230239 0.612578 -9.74648
LeftArm  -22.3535 16.4376 -65.9002
LeftForeArm  23.8886 -17.8417 -3.24814
LeftHand  0.104067 2.6223 4.28141
HEad  -9.17556 -29.0269 5.54491
RightUpLeg  -12.5151 -11.9119 -3.1659
RightLeg  7.93394 1.98174 0.148693
RightFoot  6.42636 0.00795352 0.261705
RightToes  -30.5629 -0.14553 -0.253585
152
root  0.109143 34.2478 18.2433 6.12677 29.0638 -0.0889062
LeftUpLeg  -7.75023 11.7495 3.11187
LeftLeg  9.53373 8.17251 0.833635
LeftFoot  1.92928 0.000877955 0.28008
LeftToes  -18.5757 1.92152e-006 4.03786e-008
Spine  1.78339 1.818 -0.449343
Spine1  3.29137 3.78503 -0.96193
RightShoulder  0.0557386 5.00334 7.12203
RightArm  -34.0723 -14.7628 74.3064
RightForeArm  32.3431 67.1191 24.8557
RightHand  3.15361 -12.6028 -27.6115
LeftShoulder1  0.0239593 0.58686 -9.48529
LeftArm  -23.4792 16.4584 -65.8989
LeftForeArm  24.2997 -18.2176 -3.32133
LeftHand  0.100663 2.54904 4.17014
HEad  -8.66074 -29.7351 5.26976
RightUpLeg  -12.4767 -11.8004 -3.60315
RightLeg  7.838 2.0608 0.151098
RightFoot  6.78683 0.00656498 0.282969
RightToes  -30.7523 -0.149135 -0.25716
153
root  0.220541 34.2525 18.0686 5.96306 28.3314 0.105706
LeftUpLeg  -7.46066 11.3314 2.62817
LeftLeg  9.37221 9.24531 0.916105
LeftFoot  1.82017 -0.00317711 0.302176
LeftToes  -17.8206 1.92152e-006 4.03786e-008
Spine  1.74167 1.47634 -0.561673
Spine1  3.19753 3.12211 -1.20991
RightShoulder  0.0539277 4.28158 6.65627
RightArm  -34.2083 -13.3779 74.7938
RightForeArm  47.2741 73.8269 37.7964
RightHand  2.98893 -12.3978 -26.6296
LeftShoulder1  0.0254175 0.563999 -9.24946
LeftArm  -23.8989 17.044 -65.8148
LeftForeArm  24.4432 -18.3888 -3.35477
LeftHand  0.0992272 2.48825 4.18495
HEad  -7.24668 -29.4022 4.93523
RightUpLeg  -12.6293 -11.7925 -4.04494
RightLeg  8.04717 2.7505 0.211295
RightFoot  7.12313 -0.000161336 0.383847
RightToes  -31.0955 -0.151537 -0.259714
